<svg width="36" height="36" viewBox="0 0 36 36" fill="none" xmlns="http://www.w3.org/2000/svg">
<path d="M17.8854 25.3125C18.4204 25.3125 18.8541 24.8788 18.8541 24.3437V16.5937C18.8541 16.0587 18.4204 15.625 17.8854 15.625C17.3504 15.625 16.9166 16.0587 16.9166 16.5937V24.3437C16.9166 24.8788 17.3504 25.3125 17.8854 25.3125Z" fill="white"/>
<path d="M17.8854 11.4271C18.5988 11.4271 19.1771 12.0054 19.1771 12.7188C19.1771 13.4322 18.5988 14.0105 17.8854 14.0105C17.172 14.0105 16.5938 13.4322 16.5938 12.7188C16.5938 12.0054 17.172 11.4271 17.8854 11.4271Z" fill="white"/>
<path fill-rule="evenodd" clip-rule="evenodd" d="M4 17.8854C4 10.2167 10.2167 4 17.8854 4C25.5542 4 31.7708 10.2167 31.7708 17.8854C31.7708 25.5542 25.5542 31.7708 17.8854 31.7708C10.2167 31.7708 4 25.5542 4 17.8854ZM17.8854 5.9375C11.2868 5.9375 5.9375 11.2868 5.9375 17.8854C5.9375 24.484 11.2868 29.8333 17.8854 29.8333C24.484 29.8333 29.8333 24.484 29.8333 17.8854C29.8333 11.2868 24.484 5.9375 17.8854 5.9375Z" fill="white"/>
</svg>
