<svg width="36" height="36" viewBox="0 0 36 36" fill="none" xmlns="http://www.w3.org/2000/svg">
<path d="M8.70304 31.5742H26.8712C30.0165 31.5742 31.5742 30.0165 31.5742 26.9311V8.64313C31.5742 5.5577 30.0165 4 26.8712 4H8.70304C5.57267 4 4 5.54272 4 8.64313V26.9311C4 30.0315 5.57267 31.5742 8.70304 31.5742ZM6.41143 26.8113V8.76296C6.41143 7.20526 7.23522 6.41143 8.733 6.41143H26.8412C28.324 6.41143 29.1628 7.20526 29.1628 8.76296V26.8113C29.1628 27.9795 28.6835 28.7284 27.8148 29.013C26.5117 25.3434 22.5576 22.7822 17.7946 22.7822C13.0167 22.7822 9.07749 25.3434 7.77442 29.028C6.89072 28.7284 6.41143 27.9795 6.41143 26.8113ZM17.7946 20.2809C20.6554 20.3109 22.902 17.8695 22.902 14.6642C22.902 11.6537 20.6554 9.16736 17.7946 9.16736C14.9338 9.16736 12.6572 11.6537 12.6722 14.6642C12.6872 17.8695 14.9338 20.251 17.7946 20.2809Z" fill="white"/>
</svg>
