<svg width="36" height="36" viewBox="0 0 36 36" fill="none" xmlns="http://www.w3.org/2000/svg">
<path d="M13.667 7.88889H9.62251C8.00457 7.88889 7.19501 7.88889 6.57704 8.20376C6.03346 8.48072 5.59183 8.92235 5.31487 9.46593C5 10.0839 5 10.8935 5 12.5114V26.3781C5 27.996 5 28.8046 5.31487 29.4225C5.59183 29.9661 6.03346 30.4085 6.57704 30.6854C7.1944 31 8.00299 31 9.61776 31H23.4934C25.1081 31 25.9156 31 26.5329 30.6854C27.0765 30.4085 27.5196 29.9656 27.7965 29.4221C28.1111 28.8047 28.1111 27.997 28.1111 26.3823V22.3333M22.3333 9.33333L13.6667 18V22.3333H18L26.6667 13.6667M22.3333 9.33333L26.6667 5L31 9.33333L26.6667 13.6667M22.3333 9.33333L26.6667 13.6667" stroke="white" stroke-width="2.13698" stroke-linecap="round" stroke-linejoin="round"/>
</svg>
