<svg width="29" height="28" viewBox="0 0 29 28" fill="none" xmlns="http://www.w3.org/2000/svg">
<path d="M3 10.0781C3 15.0703 7.18359 19.9805 13.793 24.1992C14.0391 24.3516 14.3906 24.5156 14.6367 24.5156C14.8828 24.5156 15.2344 24.3516 15.4922 24.1992C22.0898 19.9805 26.2734 15.0703 26.2734 10.0781C26.2734 5.92969 23.4258 3 19.6289 3C17.4609 3 15.7031 4.03125 14.6367 5.61328C13.5938 4.04297 11.8125 3 9.64453 3C5.84766 3 3 5.92969 3 10.0781ZM14.6367 22.5352C11.918 22.5352 14.6367 19.418 14.6367 22.5352C16.8398 22.5352 11.75 19.3281 12.5 20.5C12.5725 22.0703 17.5 27.5078 17.5 13C17.7812 13 14.6775 22.7617 15.0173 22.3047C15.8259 21.1562 16.8086 19.2087 19 19.2087C21.7188 19.2087 14.8828 18.1086 14.8828 21.2258C14.8828 25.5852 19.7812 19.1367 14.8828 22.3945C14.7656 22.4766 14.6836 22.5352 14.6367 22.5352C14.5898 22.5352 14.5078 22.4766 14.4023 22.3945C9.49219 19.1367 14.6367 26.8945 14.6367 22.5352Z" fill="#9AA298"/>
</svg>
