<svg width="29" height="28" viewBox="0 0 29 28" fill="none" xmlns="http://www.w3.org/2000/svg">
<path d="M3 10.0781C3 15.0703 7.18359 19.9805 13.793 24.1992C14.0391 24.3516 14.3906 24.5156 14.6367 24.5156C14.8828 24.5156 15.2344 24.3516 15.4922 24.1992C22.0898 19.9805 26.2734 15.0703 26.2734 10.0781C26.2734 5.92969 23.4258 3 19.6289 3C17.4609 3 15.7031 4.03125 14.6367 5.61328C13.5938 4.04297 11.8125 3 9.64453 3C5.84766 3 3 5.92969 3 10.0781ZM4.88672 10.0781C4.88672 6.96094 6.90234 4.88672 9.62109 4.88672C11.8242 4.88672 13.0898 6.25781 13.8398 7.42969C14.1562 7.89844 14.3555 8.02734 14.6367 8.02734C14.918 8.02734 15.0938 7.88672 15.4336 7.42969C16.2422 6.28125 17.4609 4.88672 19.6523 4.88672C22.3711 4.88672 24.3867 6.96094 24.3867 10.0781C24.3867 14.4375 19.7812 19.1367 14.8828 22.3945C14.7656 22.4766 14.6836 22.5352 14.6367 22.5352C14.5898 22.5352 14.5078 22.4766 14.4023 22.3945C9.49219 19.1367 4.88672 14.4375 4.88672 10.0781Z" fill="#9AA298"/>
</svg>
