<svg width="29" height="28" viewBox="0 0 29 28" fill="none" xmlns="http://www.w3.org/2000/svg">
<path d="M10.5625 6.5L14.5 3M14.5 3L18.4375 6.5M14.5 3V14.6667M7.9378 11.1667C6.71471 11.1667 6.10316 11.1667 5.62075 11.3442C4.97756 11.5811 4.46624 12.0356 4.19981 12.6074C4 13.0361 4 13.5794 4 14.6667V20.2667C4 21.5734 4 22.2264 4.28611 22.7255C4.53777 23.1645 4.93905 23.5222 5.43299 23.7459C5.99395 24 6.72867 24 8.19594 24H20.8047C22.272 24 23.0057 24 23.5666 23.7459C24.0605 23.5222 24.4625 23.1645 24.7141 22.7255C25 22.2269 25 21.5745 25 20.2703V14.6667C25 13.5794 24.9999 13.0361 24.8001 12.6074C24.5337 12.0356 24.0227 11.5811 23.3796 11.3442C22.8971 11.1667 22.2856 11.1667 21.0625 11.1667" stroke="#9AA298" stroke-width="2.5" stroke-linecap="round" stroke-linejoin="round"/>
</svg>
